HIERARCHY
ROOT SpineBase
{
  OFFSET 0.000000 0.000000 0.000000
  CHANNELS 6 Xposition Yposition Zposition Zrotation Xrotation Yrotation
  JOINT SpineMid
  {
    OFFSET 0.000000 30.510733 0.000000
    CHANNELS 3 Zrotation Xrotation Yrotation
    JOINT SpineShoulder
    {
      OFFSET -0.014772 22.655848 -0.608325
      CHANNELS 3 Zrotation Xrotation Yrotation
      JOINT Neck
      {
        OFFSET -0.069139 7.481183 -0.499715
        CHANNELS 3 Zrotation Xrotation Yrotation
        JOINT Head
        {
          OFFSET 3.201209 12.461927 -1.786099
          CHANNELS 3 Zrotation Xrotation Yrotation
          End Site
          {
            OFFSET 0 0 0
          }
        }
      }
      JOINT ShoulderLeft
      {
        OFFSET -15.675563 -2.068450 -4.316023
        CHANNELS 3 Zrotation Xrotation Yrotation
        JOINT ElbowLeft
        {
          OFFSET -5.472636 -24.892877 -0.606231
          CHANNELS 3 Zrotation Xrotation Yrotation
          JOINT WristLeft
          {
            OFFSET 0.758177 -20.889888 -5.486141
            CHANNELS 3 Zrotation Xrotation Yrotation
            JOINT HandLeft
            {
              OFFSET 1.999848 -4.116940 -1.631551
              CHANNELS 3 Zrotation Xrotation Yrotation
              JOINT HandTipLeft
              {
                OFFSET 0.607668 -7.255731 0.012971
                CHANNELS 3 Zrotation Xrotation Yrotation
                End Site
                {
                  OFFSET 0 0 0
                }
              }
              JOINT ThumbLeft
              {
                OFFSET -3.553988 -1.148792 -1.598923
                CHANNELS 3 Zrotation Xrotation Yrotation
                End Site
                {
                  OFFSET 0 0 0
                }
              }
            }
          }
        }
      }
      JOINT ShoulderRight
      {
        OFFSET 15.716026 -4.074868 2.595621
        CHANNELS 3 Zrotation Xrotation Yrotation
        JOINT ElbowRight
        {
          OFFSET 2.355159 -27.232164 4.313645
          CHANNELS 3 Zrotation Xrotation Yrotation
          JOINT WristRight
          {
            OFFSET 0.705896 -21.079779 -4.314286
            CHANNELS 3 Zrotation Xrotation Yrotation
            JOINT HandRight
            {
              OFFSET -2.704419 2.330880 -2.583546
              CHANNELS 3 Zrotation Xrotation Yrotation
              JOINT HandTipRight
              {
                OFFSET -1.089742 -8.237288 -2.123488
                CHANNELS 3 Zrotation Xrotation Yrotation
                End Site
                {
                  OFFSET 0 0 0
                }
              }
              JOINT ThumbRight
              {
                OFFSET -1.046699 -1.010882 -3.574326
                CHANNELS 3 Zrotation Xrotation Yrotation
                End Site
                {
                  OFFSET 0 0 0
                }
              }
            }
          }
        }
      }
    }
  }
  JOINT HipLeft
  {
    OFFSET -6.496354 1.205143 -4.362504
    CHANNELS 3 Zrotation Xrotation Yrotation
    JOINT KneeLeft
    {
      OFFSET -8.592307 -28.481068 0.415827
      CHANNELS 3 Zrotation Xrotation Yrotation
      JOINT AnkleLeft
      {
        OFFSET -3.032622 -32.925083 2.742667
        CHANNELS 3 Zrotation Xrotation Yrotation
        JOINT FootLeft
        {
          OFFSET -0.470605 -5.818217 -10.655959
          CHANNELS 3 Zrotation Xrotation Yrotation
          End Site
          {
            OFFSET 0 0 0
          }
        }
      }
    }
  }
  JOINT HipRight
  {
    OFFSET 5.330226 0.082683 -2.720552
    CHANNELS 3 Zrotation Xrotation Yrotation
    JOINT KneeRight
    {
      OFFSET 2.368118 -28.878721 6.437999
      CHANNELS 3 Zrotation Xrotation Yrotation
      JOINT AnkleRight
      {
        OFFSET 0.651296 -33.673952 7.245175
        CHANNELS 3 Zrotation Xrotation Yrotation
        JOINT FootRight
        {
          OFFSET 3.835248 -6.589145 -4.585814
          CHANNELS 3 Zrotation Xrotation Yrotation
          End Site
          {
            OFFSET 0 0 0
          }
        }
      }
    }
  }
}
MOTION
Frames: 9
Frame Time: 0.033333
65.940164 69.714712 393.420413 -0.000000 0.000000 -7.904176 -0.000000 0.000000 7.904176 -0.000000 0.000000 0.000000 -0.000000 0.000000 0.000000 0.000000 0.000000 0.000000 -0.000000 0.000000 0.000000 -0.000000 0.000000 0.000000 -0.000000 0.000000 0.000000 -0.000000 0.000000 0.000000 0.000000 0.000000 0.000000 0.000000 0.000000 0.000000 -0.000000 0.000000 0.000000 -0.000000 0.000000 0.000000 -0.000000 0.000000 0.000000 -0.000000 0.000000 0.000000 0.000000 0.000000 0.000000 0.000000 0.000000 0.000000 -0.000000 0.000000 7.904176 -0.000000 0.000000 0.000000 -0.000000 0.000000 0.000000 0.000000 0.000000 0.000000 -0.000000 0.000000 7.904176 -0.000000 0.000000 0.000000 -0.000000 0.000000 0.000000 0.000000 0.000000 0.000000
65.943818 69.766417 393.445956 0.175164 0.055098 -8.044234 -0.165730 -0.079067 8.044035 -0.000000 0.000000 0.000000 -0.000000 0.000000 0.000000 0.000000 0.000000 0.000000 -0.000000 0.000000 0.000000 0.985688 1.280732 -0.222679 -0.326148 -3.709431 -1.213963 0.603382 5.904949 1.655194 0.000000 0.000000 0.000000 0.000000 0.000000 0.000000 0.074779 0.834657 0.083578 -0.673496 0.326595 0.073872 14.477740 -13.983813 1.754698 -13.823760 10.092124 1.881245 0.000000 0.000000 0.000000 0.000000 0.000000 0.000000 -0.165730 -0.079067 8.044035 -0.000000 0.000000 0.000000 -1.339003 -5.020104 3.040673 0.000000 0.000000 0.000000 -0.165730 -0.079067 8.044035 -0.000000 0.000000 0.000000 -1.285273 3.371468 2.854883 0.000000 0.000000 0.000000
65.931830 69.812044 393.470490 0.333198 0.109029 -8.161975 -0.314345 -0.155227 8.161232 -0.000000 0.000000 0.000000 -0.875358 0.859409 -0.339364 0.000000 0.000000 0.000000 0.738508 1.134434 -0.275030 1.081728 1.203359 -0.133150 -0.836094 -7.359095 -2.411532 1.034355 11.768730 3.141349 0.000000 0.000000 0.000000 0.000000 0.000000 0.000000 0.155928 1.577574 0.159326 -1.231833 0.632788 0.120986 35.074467 -28.818439 10.228246 -32.404085 21.448367 7.904306 0.000000 0.000000 0.000000 0.000000 0.000000 0.000000 -0.314345 -0.155227 8.161232 -0.000000 0.000000 0.000000 -2.418971 -9.341800 5.851920 0.000000 0.000000 0.000000 -0.314345 -0.155227 8.161232 -0.000000 0.000000 0.000000 -2.109027 5.692121 4.771888 0.000000 0.000000 0.000000
65.904201 69.851592 393.494012 0.474031 0.161777 -8.257230 -0.445887 -0.228174 8.255673 -0.000000 0.000000 0.000000 -1.250542 1.225451 -0.480058 0.000000 0.000000 0.000000 1.072445 1.611725 -0.396239 1.435913 1.554770 -0.175063 -1.598369 -10.884625 -3.587995 1.365376 17.443946 4.474710 0.000000 0.000000 0.000000 0.000000 0.000000 0.000000 0.243733 2.222121 0.226739 -1.674190 0.925028 0.144444 58.632112 -37.488877 24.871998 -51.304305 28.784954 16.737806 0.000000 0.000000 0.000000 0.000000 0.000000 0.000000 -0.445887 -0.228174 8.255673 -0.000000 0.000000 0.000000 -3.294202 -12.776456 8.393288 0.000000 0.000000 0.000000 -0.445887 -0.228174 8.255673 -0.000000 0.000000 0.000000 -2.473969 7.213741 5.892576 0.000000 0.000000 0.000000
65.860931 69.885062 393.516525 0.597606 0.213329 -8.329886 0.368785 -0.056791 8.355883 0.035546 -0.089152 0.041361 -2.573573 1.538031 -0.669657 0.000000 0.000000 0.000000 0.396557 2.016953 -0.572214 1.664207 1.737199 -0.196578 -2.671705 -14.205370 -4.738121 1.680560 22.787393 5.657624 0.000000 0.000000 0.000000 0.000000 0.000000 0.000000 -0.648272 2.748500 0.219043 -2.000184 1.209377 0.147047 77.461111 -38.723442 38.463762 -65.345801 31.260405 23.729192 0.000000 0.000000 0.000000 0.000000 0.000000 0.000000 -0.560403 -0.297642 8.327317 -0.000000 0.000000 0.000000 -4.033553 -15.217206 10.638760 0.000000 0.000000 0.000000 -0.560403 -0.297642 8.327317 -0.000000 0.000000 0.000000 -2.391004 8.091332 6.310286 0.000000 0.000000 0.000000
65.802019 69.912453 393.538027 0.703869 0.263669 -8.379880 0.414684 -0.079892 8.410009 0.030963 -0.107742 0.047276 -3.012253 1.819853 -0.785406 0.000000 0.000000 0.000000 0.543894 2.379743 -0.680073 1.766277 1.749972 -0.196077 -4.095029 -17.229003 -5.851848 2.069381 27.664208 6.673789 0.000000 0.000000 0.000000 0.000000 0.000000 0.000000 -0.689220 3.177347 0.259008 -2.209679 1.491332 0.131111 88.781017 -36.189586 47.279596 -74.110607 31.588040 27.115255 0.000000 0.000000 0.000000 0.000000 0.000000 0.000000 -0.657941 -0.363412 8.376174 -0.000000 0.000000 0.000000 -4.705941 -16.617447 12.573600 0.000000 0.000000 0.000000 -0.657941 -0.363412 8.376174 -0.000000 0.000000 0.000000 -1.863738 8.403311 6.075090 0.000000 0.000000 0.000000
65.717532 69.936244 393.485351 0.827961 0.340797 -8.282996 0.435991 -0.126544 8.317030 0.008729 -0.132003 0.051705 -3.539145 2.104507 -0.913386 0.000000 0.000000 0.000000 0.769341 2.753131 -0.793686 1.658599 1.472643 -0.151969 -5.679303 -19.626598 -6.833427 1.807081 32.674561 7.825180 0.000000 0.000000 0.000000 0.000000 0.000000 0.000000 -0.578181 3.255321 0.287621 -2.463340 2.564017 0.140664 97.219810 -28.508530 55.232540 -83.917341 32.558789 27.230632 0.000000 0.000000 0.000000 0.000000 0.000000 0.000000 -0.770252 -0.456483 8.277465 -0.000000 0.000000 0.000000 -5.097334 -11.374340 11.838868 0.000000 0.000000 0.000000 -0.770252 -0.456483 8.277465 -0.000000 0.000000 0.000000 -1.357465 7.339355 5.113124 0.000000 0.000000 0.000000
65.611100 69.951697 393.545912 0.894868 0.375639 -8.429408 0.432552 -0.161917 8.465137 -0.012698 -0.144816 0.052616 -3.721519 2.483456 -1.019218 0.000000 0.000000 0.000000 1.031396 3.023037 -0.873119 1.346049 0.974251 -0.079978 -8.601842 -23.816338 -9.028083 0.930531 39.491703 10.297380 0.000000 0.000000 0.000000 0.000000 0.000000 0.000000 -0.487475 3.557790 0.325016 -2.248765 2.537701 0.027493 96.301135 -22.016747 56.662139 -86.260195 33.536313 22.321242 0.000000 0.000000 0.000000 0.000000 0.000000 0.000000 -0.830167 -0.502714 8.422832 -0.000000 0.000000 0.000000 -5.819496 -9.841751 12.898554 0.000000 0.000000 0.000000 -0.830167 -0.502714 8.422832 -0.000000 0.000000 0.000000 -1.890268 4.597062 3.993874 0.000000 0.000000 0.000000
65.498777 69.951615 393.649998 0.925720 0.381417 -8.568776 0.419531 -0.180548 8.604961 -0.028394 -0.149230 0.052042 -3.765457 2.639634 -1.056558 0.000000 0.000000 0.000000 1.243260 3.191926 -0.921664 1.121293 0.451880 -0.036974 -11.123306 -24.481998 -9.318550 2.802619 39.267291 9.646032 0.000000 0.000000 0.000000 0.000000 0.000000 0.000000 -0.370720 3.785741 0.356738 -1.695758 1.848908 -0.166644 88.660485 -19.867584 53.208929 -80.206833 34.201665 14.414999 0.000000 0.000000 0.000000 0.000000 0.000000 0.000000 -0.858592 -0.515038 8.561835 -0.000000 0.000000 0.000000 -6.192830 -11.123387 14.035406 0.000000 0.000000 0.000000 -0.858592 -0.515038 8.561835 -0.000000 0.000000 0.000000 0.659545 5.124807 2.412771 0.000000 0.000000 0.000000
